<!DOCTYPE svg PUBLIC "-//W3C//DTD SVG 1.1//EN" "http://www.w3.org/Graphics/SVG/1.1/DTD/svg11.dtd">
<!-- Uploaded to: SVG Repo, www.svgrepo.com, Transformed by: SVG Repo Mixer Tools -->
<svg width="64px" height="64px" viewBox="0 0 64 64" xmlns="http://www.w3.org/2000/svg" fill="#000000">
<g id="SVGRepo_bgCarrier" stroke-width="0"/>
<g id="SVGRepo_tracerCarrier" stroke-linecap="round" stroke-linejoin="round"/>
<g id="SVGRepo_iconCarrier"> <defs> <style>.cls-1{fill:#eb3a5c;}.cls-2{fill:#ffd15c;}.cls-3{fill:#f3ac13;}.cls-4{fill:#ffffff;}</style> </defs> <g id="main"> <path class="cls-1" d="M62.92,10.62A1,1,0,0,0,62,10H54V2a1,1,0,0,0-.62-.92,1,1,0,0,0-1.09.21l-14.5,14.5a1,1,0,0,0-.28.82,1,1,0,0,0,.45.73l11,7a1,1,0,0,0,.54.16,1,1,0,0,0,.71-.29l12.5-12.5A1,1,0,0,0,62.92,10.62Z"/> <path class="cls-1" d="M26.21,15.79,11.71,1.29a1,1,0,0,0-1.09-.21A1,1,0,0,0,10,2v8H2a1,1,0,0,0-.92.62,1,1,0,0,0,.21,1.09l12.5,12.5a1,1,0,0,0,.71.29,1,1,0,0,0,.54-.16l11-7a1,1,0,0,0,.45-.73A1,1,0,0,0,26.21,15.79Z"/> <circle class="cls-2" cx="32" cy="39" r="24"/> <path class="cls-3" d="M49.82,33.1a3.32,3.32,0,0,0-3.2-2.34H38.9a1.37,1.37,0,0,1-1.3-1l-2.39-7.43a3.36,3.36,0,0,0-6.42,0L26.4,29.79a1.37,1.37,0,0,1-1.3,1H17.38a3.32,3.32,0,0,0-3.2,2.34,3.36,3.36,0,0,0,1.21,3.82l6.24,4.6a1.41,1.41,0,0,1,.51,1.58l-2.39,7.43A3.37,3.37,0,0,0,21,54.36a3.32,3.32,0,0,0,3.94,0l6.25-4.6a1.34,1.34,0,0,1,1.6,0l6.25,4.6a3.32,3.32,0,0,0,3.94,0,3.37,3.37,0,0,0,1.26-3.83L41.86,43.1a1.41,1.41,0,0,1,.51-1.58l6.24-4.6A3.36,3.36,0,0,0,49.82,33.1Z"/> <path class="cls-4" d="M29,45a1,1,0,0,1-1-1V34a1,1,0,0,1,1-1h2.64c3,.2,4.86,2.58,4.86,6.07s-2,5.83-4.76,5.88L29,45Zm1-2,1.7,0c1.92,0,2.8-2,2.8-3.88s-.77-3.93-2.93-4.07H30Z"/> </g> </g>
</svg>